<svg xmlns="http://www.w3.org/2000/svg" version="1.1" xmlns:xlink="http://www.w3.org/1999/xlink" xmlns:svgjs="http://svgjs.dev/svgjs" width="1000" height="308" viewBox="0 0 1000 308"><g transform="matrix(1,0,0,1,-0.6060585691329834,0.162796779621317)"><svg viewBox="0 0 396 122" data-background-color="#ffffff" preserveAspectRatio="xMidYMid meet" height="308" width="1000" xmlns="http://www.w3.org/2000/svg" xmlns:xlink="http://www.w3.org/1999/xlink"><defs></defs><g id="tight-bounds" transform="matrix(1,0,0,1,0.23999919337666142,-0.06448351673475372)"><svg viewBox="0 0 395.52 122.12896795541596" height="122.12896795541596" width="395.52"><g><svg viewBox="0 0 395.52 122.12896795541596" height="122.12896795541596" width="395.52"><g transform="matrix(1,0,0,1,0,75.4806017676445)"><svg viewBox="0 0 395.52 46.64836618777146" height="46.64836618777146" width="395.52"><g><svg viewBox="0 0 395.52 46.64836618777146" height="46.64836618777146" width="395.52"><g><svg viewBox="0 0 395.52 46.64836618777146" height="46.64836618777146" width="395.52"><g transform="matrix(1,0,0,1,0,0)"><svg width="395.52" viewBox="1.5 -34.900001525878906 299.2799987792969 35.30000305175781" height="46.64836618777146" data-palette-color="#000000"><path d="M34.05-5.85L34.05-18.85Q34.05-20.85 34.4-25.05L34.4-25.05 34.5-26.25 34-26.3Q32.85-22.05 32-19.55L32-19.55 25.35 0 18.7 0 11.7-19.55Q10.75-21.8 10-25.15L10-25.15 9.7-26.3 9.2-26.25Q9.65-21.8 9.65-18.85L9.65-18.85 9.65-5.7Q11.5-5 12.4-3.85L12.4-3.85 11.9 0 2.1 0 1.6-3.85Q2.5-5 4.35-5.7L4.35-5.7 4.35-28.8Q2.3-29.55 1.5-30.65L1.5-30.65 2-34.5 13.4-34.5 20.7-14.35Q22.1-11.05 22.5-8.3L22.5-8.3 22.65-7.45 23.35-7.45Q23.55-10.5 25.15-14.35L25.15-14.35 32.1-34.5 43.3-34.5 43.8-30.65Q43-29.55 40.95-28.8L40.95-28.8 40.95-5.9Q42.9-5.15 43.7-4.15L43.7-4.15 43.2 0 31.8 0 31.3-4.1Q32.1-5.1 34.05-5.85L34.05-5.85ZM58-34.75L64.85-34.75 74.8-5.9Q76.9-5.15 77.75-4.15L77.75-4.15 77.25 0 65.55 0 65.05-4.15Q65.65-4.95 67.45-5.65L67.45-5.65 66.1-9.85 56.1-9.85 54.85-5.8Q56.6-5.1 57.45-4.15L57.45-4.15 56.95 0 45.55 0 45.05-4.15Q45.95-5.3 48.4-6.05L48.4-6.05 58-34.75ZM61.4-27.75L60.7-27.75Q60.7-24.7 59.45-20.65L59.45-20.65 57.5-14.45 64.65-14.45 62.75-20.55Q61.6-24.05 61.45-26.9L61.45-26.9 61.4-27.75ZM94.59-29.05L94.59-29.05Q92.89-29.5 91.05-29.5 89.19-29.5 88.07-28.58 86.94-27.65 86.94-25.98 86.94-24.3 87.8-23.35 88.64-22.4 91.14-21.7L91.14-21.7 95.59-20.4Q99.19-19.35 101.32-17.13 103.44-14.9 103.44-10.6L103.44-10.6Q103.44-5.5 99.77-2.55 96.09 0.4 90.64 0.4L90.64 0.4Q87.64 0.4 84.47-0.38 81.3-1.15 79.19-2.55L79.19-2.55Q79.19-2.85 79.19-3.7 79.19-4.55 79.55-6.6 79.89-8.65 80.55-9.95L80.55-9.95 85.3-9.95Q86.09-8.4 86.25-5.8L86.25-5.8Q88-5.05 90.32-5.05 92.64-5.05 94.14-6.15 95.64-7.25 95.64-9.3L95.64-9.3Q95.64-10.25 95.5-10.88 95.34-11.5 94.57-12.23 93.8-12.95 92.34-13.4L92.34-13.4 87.19-14.9Q79.34-17.15 79.34-24.9L79.34-24.9Q79.34-29.45 82.64-32.18 85.94-34.9 91.27-34.9 96.59-34.9 101.69-32.5L101.69-32.5Q101.69-32.2 101.69-31.35 101.69-30.5 101.34-28.45 101-26.4 100.34-25.1L100.34-25.1 95.59-25.1Q94.75-26.3 94.59-29.05ZM136.24-4.15L135.74 0 127.44 0 116.34-18 124.69-29.1Q123.29-29.75 122.74-30.45L122.74-30.45 123.24-34.5 134.64-34.5 135.14-30.45Q134.44-29.65 132.54-28.85L132.54-28.85 123.89-18.2 131.79-6.3Q135.04-5.6 136.24-4.15L136.24-4.15ZM106.59-34.5L118.29-34.5 118.79-30.35Q117.99-29.4 116.04-28.65L116.04-28.65 116.04-5.8Q118.04-5 118.79-4.15L118.79-4.15 118.29 0 106.59 0 106.09-4.15Q106.74-5 108.84-5.8L108.84-5.8 108.84-28.65Q106.79-29.4 106.09-30.35L106.09-30.35 106.59-34.5ZM148.49-34.75L155.34-34.75 165.29-5.9Q167.39-5.15 168.24-4.15L168.24-4.15 167.74 0 156.04 0 155.54-4.15Q156.14-4.95 157.94-5.65L157.94-5.65 156.59-9.85 146.59-9.85 145.34-5.8Q147.09-5.1 147.94-4.15L147.94-4.15 147.44 0 136.04 0 135.54-4.15Q136.44-5.3 138.89-6.05L138.89-6.05 148.49-34.75ZM151.89-27.75L151.19-27.75Q151.19-24.7 149.94-20.65L149.94-20.65 147.99-14.45 155.14-14.45 153.24-20.55Q152.09-24.05 151.94-26.9L151.94-26.9 151.89-27.75ZM177.74-18.85L177.74-18.85 177.74-5.7Q179.59-5 180.49-3.85L180.49-3.85 179.99 0 170.19 0 169.69-3.85Q170.59-5 172.44-5.7L172.44-5.7 172.44-28.8Q170.39-29.55 169.59-30.65L169.59-30.65 170.09-34.5 180.39-34.5 190.34-15.1Q191.44-13 192.49-9.5L192.49-9.5 192.84-8.3 193.39-8.5Q192.69-12.85 192.69-15.8L192.69-15.8 192.69-28.75Q190.89-29.45 189.94-30.65L189.94-30.65 190.44-34.5 200.24-34.5 200.74-30.65Q199.79-29.45 197.99-28.75L197.99-28.75 197.99 0 190.14 0 180.09-19.55Q178.99-21.65 177.94-25.2L177.94-25.2 177.59-26.35 177.04-26.15Q177.74-21.8 177.74-18.85ZM234.23-4.15L233.73 0 222.03 0 221.53-4.15Q222.18-5 224.28-5.8L224.28-5.8 224.28-11.55 216.13-28.5Q213.78-29.3 212.93-30.35L212.93-30.35 213.38-34.25 213.38-34.3 213.43-34.5 225.13-34.5 225.63-30.35Q225.03-29.5 223.33-28.85L223.33-28.85 225.03-25Q226.48-21.7 227.53-18.45L227.53-18.45 227.88-17.45 228.63-17.45Q229.68-21.1 231.38-25L231.38-25 232.98-28.65Q230.98-29.45 230.28-30.35L230.28-30.35 230.78-34.5 242.18-34.5 242.68-30.35Q241.68-29.2 239.38-28.45L239.38-28.45 231.48-11.55 231.48-5.8Q233.48-5 234.23-4.15L234.23-4.15ZM251.78-34.75L258.63-34.75 268.58-5.9Q270.68-5.15 271.53-4.15L271.53-4.15 271.03 0 259.33 0 258.83-4.15Q259.43-4.95 261.23-5.65L261.23-5.65 259.88-9.85 249.88-9.85 248.63-5.8Q250.38-5.1 251.23-4.15L251.23-4.15 250.73 0 239.33 0 238.83-4.15Q239.73-5.3 242.18-6.05L242.18-6.05 251.78-34.75ZM255.18-27.75L254.48-27.75Q254.48-24.7 253.23-20.65L253.23-20.65 251.28-14.45 258.43-14.45 256.53-20.55Q255.38-24.05 255.23-26.9L255.23-26.9 255.18-27.75ZM273.48-34.5L284.83-34.5Q290.73-34.5 293.4-33.77 296.08-33.05 297.23-32.05L297.23-32.05Q299.78-29.85 299.78-25.3L299.78-25.3Q299.78-21.9 296.13-18.85L296.13-18.85Q300.78-16.5 300.78-10.1L300.78-10.1Q300.78-5.1 297.5-2.68 294.23-0.25 287.73 0L287.73 0 273.48 0 272.98-4.15Q273.63-5 275.73-5.8L275.73-5.8 275.73-28.65Q273.68-29.4 272.98-30.35L272.98-30.35 273.48-34.5ZM287.38-14.95L287.38-14.95 282.93-14.95 282.93-5.45 286.38-5.45Q289.78-5.45 291.53-6.45 293.28-7.45 293.28-10.05 293.28-12.65 291.9-13.8 290.53-14.95 287.38-14.95ZM285.53-29.05L285.53-29.05 282.93-29.05 282.93-20.4 287.03-20.4Q289.58-20.4 290.93-21.7 292.28-23 292.28-24.88 292.28-26.75 291.33-27.7 290.38-28.65 289.13-28.85 287.88-29.05 285.53-29.05Z" opacity="1" transform="matrix(1,0,0,1,0,0)" fill="#000000" class="undefined-text-0" data-fill-palette-color="primary" id="text-0"></path></svg></g></svg></g></svg></g></svg></g><g transform="matrix(1,0,0,1,164.4728452329067,0)"><svg viewBox="0 0 66.5743095341866 64.46804207150016" height="64.46804207150016" width="66.5743095341866"><g><svg xmlns="http://www.w3.org/2000/svg" xmlns:xlink="http://www.w3.org/1999/xlink" version="1.1" x="7.9999999999999964" y="0" viewBox="21.652999877929688 15.463750839233398 46.03700256347656 58.68424987792969" enable-background="new 0 0 90 90" xml:space="preserve" height="64.46804207150016" width="50.574309534186604" class="icon-icon-0" data-fill-palette-color="accent" id="icon-0"><g fill="#61777f" data-fill-palette-color="accent"><g fill="#61777f" data-fill-palette-color="accent"><path d="M66.062 74.148H23.278c-0.897 0-1.625-0.729-1.625-1.625V38.482c0-0.431 0.171-0.845 0.476-1.149L43.522 15.94c0.635-0.635 1.663-0.635 2.298 0l7.59 7.591v-1.115c0-0.897 0.729-1.625 1.625-1.625h7.003c0.897 0 1.625 0.728 1.625 1.625v11.368l3.55 3.549c0.305 0.305 0.477 0.719 0.477 1.149v13.555c0 0.896-0.729 1.625-1.625 1.625-0.897 0-1.625-0.729-1.625-1.625V39.155l-3.551-3.55c-0.305-0.305-0.476-0.719-0.476-1.148V24.041H56.66v3.413c0 0.657-0.396 1.249-1.003 1.502-0.61 0.25-1.308 0.112-1.771-0.354l-9.217-9.215L24.903 39.155v31.744h39.537v-4.562c0-0.898 0.728-1.625 1.625-1.625 0.896 0 1.625 0.727 1.625 1.625v6.188C67.688 73.421 66.961 74.148 66.062 74.148z" fill="#61777f" data-fill-palette-color="accent"></path></g></g></svg></g></svg></g><g><rect width="164.4728452329067" height="4.206797803927136" y="59.26124426757303" x="231.0471547670933" fill="#61777f" data-fill-palette-color="accent"></rect><rect width="164.4728452329067" height="4.206797803927136" y="59.26124426757303" x="0" fill="#61777f" data-fill-palette-color="accent"></rect><rect width="164.4728452329067" height="4.206797803927136" y="50.84764865971876" x="231.0471547670933" fill="#61777f" data-fill-palette-color="accent"></rect><rect width="164.4728452329067" height="4.206797803927136" y="50.84764865971876" x="0" fill="#61777f" data-fill-palette-color="accent"></rect></g></svg></g></svg><rect width="395.52" height="122.12896795541596" fill="none" stroke="none" visibility="hidden"></rect></g></svg></g></svg>